
<svg xmlns="http://www.w3.org/2000/svg" version="1.1" xmlns:xlink="http://www.w3.org/1999/xlink" preserveAspectRatio="none" x="0px" y="0px" width="1024px" height="256px" viewBox="0 0 1024 256">
<defs>
<g id="Layer0_0_FILL">
<path fill="#FFFFFF" stroke="none" d="
M 332.4 87.75
Q 345.95 85.3 358.15 94.6 361.2 96.95 364.75 102.4 368.3 107.9 370 112.85 374.2 124.95 371.4 138.15 368.6 151.35 360.1 159.7 358.3 161.45 357 162.95 355.7 164.45 355.7 164.75 355.7 165.1 357.3 167.4 358.9 169.65 361.1 172.5 364.95 177.6 366 178.35 367.05 179.1 368.6 178.1 371.05 176.5 376 169.85 380.9 163.2 383.25 158.35 386.85 150.7 388.05 144.4 389.35 137.95 389.3 127.4 389.3 118.7 388.9 115.4 388.45 112.05 386.7 106.95 380.1 87.85 367.2 77.2 354.35 66.6 337.75 66.65 328.15 66.65 320.35 70.1 312.55 73.5 304.85 81.2 302.1 83.9 299.55 86.75 297 89.5 296.25 90.55
L 294.45 93.2 289.65 86.75
Q 285.1 80.65 278.25 75.7 271.45 70.75 264.6 68.55 260.45 67.2 257.45 66.85 254.5 66.55 248.95 66.75 242.75 67 240.1 67.7 237.5 68.4 231.9 71.15 219.2 77.45 211.4 88.75 208.45 93.2 208.05 93.2 207.65 93.2 203.4 87.45 199.4 82.05 193.6 77.35 187.85 72.7 181.85 69.95 175.35 67.05 166.8 66.65 158.25 66.2 151.45 68.5 145.15 70.6 140.65 73.4 136.15 76.2 131.4 80.95 114.65 97.7 112.5 127.15 112.2 132.15 111.5 137 110.75 141.75 110.15 143.55 107.5 151.05 102.55 156.95 97.6 162.8 91.15 166.2 88.1 167.8 85.8 168.25 83.45 168.7 78.3 168.7 73.15 168.7 70.7 168.25 68.35 167.8 65 166.2 56.3 161.95 50.6 153 45.25 144.55 43.85 133.85 42.45 123.2 45.35 113.4 48.45 103.1 55.7 96.4
L 61 91.55 55.65 84.65
Q 50.25 77.65 49.25 77.3 48.85 77.15 46.95 78.7 45 80.2 42.75 82.5 38.35 86.9 33.95 95.05 29.6 103.05 28 109.65 24.95 123 27 138.05 29.15 153.15 35.7 164.2 41.05 173.1 50.45 180.2 59.85 187.3 68.8 189.15 73.55 190.15 80.95 189.55 88.25 188.95 92.85 187.25 100.45 184.4 108.1 178.05 115.8 171.7 120.1 164.7 120.8 163.55 121.15 163.6 121.6 163.75 122.7 165.4 124.2 167.75 131.45 175 143 186.6 156.8 189.25 170.55 191.85 184.5 185.1 189.45 182.7 197.25 175.6 205.1 168.5 206.05 165.5 206.65 163.6 208 163.6 209.3 163.55 209.9 165.45 210.15 166.25 212.45 168.95 214.8 171.75 217.8 174.75 232.85 190 251.15 190.05 269.45 190.15 284.45 175 293.5 165.85 297.85 155.2 302.25 144.55 303.45 128.8 304.1 119.35 305.6 113.95 307.1 108.5 310.55 103.2 318.85 90.2 332.4 87.75
M 250 87.65
Q 254.65 87.45 256.8 87.85 258.95 88.25 263.3 90.3 278.45 97.35 283.65 115.25 288.85 133.2 280.55 149.45 278.2 154 272.9 159.25 267.55 164.55 263.55 166.3 259.65 167.95 254 168.6 248.35 169.25 244.95 168.35 230.05 164.5 222.05 148.95 214.1 133.35 218.4 116.65 221.75 103.85 230.25 96.15 238.7 88.35 250 87.65
M 166.25 87.7
Q 175.6 88.3 183.2 94.1 190.4 99.6 194.65 108.55 198.85 117.5 198.95 127.65 199 138.35 194.5 148.05 192.05 153.4 187.1 158.55 182.15 163.65 177.3 165.95 169.05 169.85 160.45 168.6 152.3 167.4 145.45 161.8 138.6 156.25 134.65 147.6 130.55 138.55 130.55 127.9 130.55 118.5 133.65 110.9 136.7 103.3 143 96.9 148.4 91.5 153.75 89.45 159.1 87.3 166.25 87.7
M 579.9 76.1
L 604.65 76.1 604.1 72.5
Q 597.65 34.3 561.2 19.1 552.2 15.35 543.2 13.8 534.3 12.25 520.05 11.95 506.2 11.7 496.3 13.05 486.4 14.45 477.4 17.8 456.8 25.6 445.7 41.05 434.55 56.45 434.55 77.3 434.55 93.8 440.9 105.45 447.2 117.05 461.15 126.05 470.05 131.8 482.55 136.4 494.95 141 514.8 145.9 534.25 150.7 544 155.5 553.85 160.3 557.75 167.05 559.55 170.15 560 172.2 560.45 174.4 560.4 180.1 560.4 185.35 560 187.75 559.6 190.2 558.35 192.45 552.5 203.4 538.15 206.35 532.6 207.5 519.35 207 506.15 206.4 501.55 204.9 493.15 202 486.25 195 479.35 188 476.95 179.8
L 475.65 175.35 426.15 174.9 427.55 180.8
Q 433.55 206.85 449.85 221.8 466.2 236.75 494.5 242.25 504 244.05 519.4 244.05 534.8 244.1 545.25 242.35 576.8 236.85 593.65 219.15 610.5 201.4 610.35 173.8 610.3 150.65 598.15 136.1 586 121.6 557.85 110.65 554.4 109.35 545.95 106.85 537.45 104.4 529.05 102.25 505.25 96.15 496.5 91.7 487.8 87.2 485.35 79.75 483.9 75.25 484.2 69.8 484.55 64.35 486.6 60.35 489.65 54.35 497.4 50.95 505.2 47.55 515.8 47.55 526.7 47.5 534.45 50.2 542.25 52.85 547.4 58.35 549.95 61.15 552.6 66.7 555.2 72.15 555.2 74.7 555.2 75.6 559.7 75.85 564.1 76.1 579.9 76.1
M 792.7 54.25
L 792.7 14.35 633.1 14.35 633.1 241.4 793.45 241.4 793.95 239.25
Q 794.4 237.7 796.9 220.6 799.35 203.5 799.35 202.35 799.35 202 782.1 201.7 764.8 201.5 740 201.5
L 680.6 201.5 680.6 143.55 787.95 143.55 787.95 102.7 680.6 102.7 680.6 54.25 792.7 54.25
M 997.85 75.15
Q 997.35 54 984.5 38.75 971.55 23.5 949.55 18.1 939.45 15.6 927 15 914.65 14.4 874.65 14.4
L 823.1 14.35 823.1 241.4 870.6 241.4 870.6 150.2 891.85 150.2
Q 909.1 150.2 917.75 151.25 926.3 152.4 932.35 155.35 936 157.15 939.3 161.1 942.6 165.05 943.75 169 944.25 170.45 944.8 178.6 945.35 186.75 945.65 196.75 946.95 232.5 949.45 239.1
L 950.35 241.4 996.25 241.4 995.65 237.8
Q 994.9 233.6 994.35 224.2 993.85 214.9 993.15 193.9 992.5 173.25 991.25 165.25 990.05 157.1 986.5 150.3 984.05 145.4 979.85 140.8 975.75 136.15 971.75 133.95 966.55 131 966.55 130.4 966.6 130.15 968.4 128.85 970.3 127.5 972.85 125.95 985.1 118.5 991.65 105.2 998.2 91.9 997.85 75.15
M 892.45 53.5
Q 915.6 53.2 925.35 54.95 935.05 56.65 940.75 62.1 944.6 65.8 946.25 69.9 947.95 74 948.3 80.5 948.9 91.4 944.7 98.2 940.55 105.1 931.35 108.45 927.05 109.95 922.1 110.4 917.05 110.75 897.9 111.05
L 870.55 111.4 871.1 53.75 892.45 53.5 Z"/>
</g>
</defs>

<g transform="matrix( 1, 0, 0, 1, 0,0) ">
<use xlink:href="#Layer0_0_FILL"/>
</g>
</svg>
